<svg xmlns="http://www.w3.org/2000/svg" width="2858" height="746" viewBox="0 0 2858 746">
  <defs>
    <style>
      .cls-1 {
        fill: #fff;
      }

      .cls-1, .cls-2 {
        fill-rule: evenodd;
      }

      .cls-2 {
        fill: #00adee;
      }
    </style>
  </defs>
  <g id="_Group_" data-name="&lt;Group&gt;">
    <path id="_Path_" data-name="&lt;Path&gt;" class="cls-1" d="M2773.17,433.18c-8.45,17.119-14.95,31.749-22.99,45.6-2.09,3.615-8.97,6.783-13.68,6.805-82.82.395-165.66,0.821-248.48,0.014-38.98-.38-60.76-33.937-44.94-67.242q16.455-34.639,34.52-68.588c2.31-4.314,8.67-9.56,13.19-9.589,75.92-.486,151.84-0.216,227.76-0.053,0.89,0,1.78.809,4.73,2.237-7.5,14.922-14.45,30.227-23.05,44.677-1.89,3.184-9.6,4.652-14.64,4.687-48.85.339-97.7,0.176-146.55,0.224-11.8.012-31.5,24.29-25.8,33.459,2.76,4.429,12.05,7.4,18.41,7.447,73.8,0.506,147.61.325,221.41,0.325h20.11Z"/>
    <g id="_Group_2" data-name="&lt;Group&gt;">
      <path id="_Path_2" data-name="&lt;Path&gt;" class="cls-1" d="M839.073,484.412c8.12-16.232,14.479-30.993,22.956-44.6,2.442-3.92,10.978-6.332,16.737-6.359q125.94-.6,251.884-0.21c17.6,0.029,32.62-4.978,42.69-18.789,3.22-4.42,6.11-11.955,4.16-15.916-1.81-3.688-10.26-6.3-15.8-6.335-64.3-.426-128.6-0.246-192.9-0.283-45.111-.026-67.163-32.516-48.238-70.978,3.325-6.758,6.5-13.586,10.007-20.259,18.313-34.805,48.384-52.876,89.685-54.808,3.18-.149,6.38-0.068,9.57-0.068q495.795,0,991.6,0c3.72,0,7.45-.1,11.16.118,36.09,2.1,58.8,34.168,44.3,64.923-20.12,42.653-40.75,85.177-63.54,126.615-17.69,32.173-48.5,48.091-87.27,48.282q-122.745.6-245.5,0.009c-42.97-.213-64.77-33.2-46.88-69.972,12.96-26.631,26.67-52.947,39.33-79.7,3.57-7.547,7.98-10.255,16.74-9.956,18.51,0.631,37.06.192,57.58,0.192-2.28,5.414-3.77,9.478-5.68,13.357-11.32,22.978-22.77,45.9-34.12,68.865-10.38,20.97-7.77,24.621,17.61,24.632q70.95,0.029,141.89,0c14.35,0,28.7-.2,43.04.045,23.84,0.414,40.49-9.463,50.49-29.656,13.58-27.454,27.45-54.785,41.03-82.242,8.87-17.95,5.96-22.3-14.84-22.312q-126.75-.074-253.48-0.02c-61.11,0-122.23.306-183.34-.253-12.68-.116-19.48,2.923-25.06,14.5-26.12,54.266-53.8,107.872-80.3,161.983-3.97,8.123-8.61,11.112-17.9,10.822-18.37-.573-36.78-0.169-57.76-0.169,31.34-62.949,61.43-123.375,92.49-185.76-6.99-.466-11.95-1.083-16.91-1.085q-203.265-.076-406.53-0.153c-18.85-.03-34.71,4.875-45.157,20.04-2.8,4.066-5.208,11.115-3.259,14.532,2.007,3.519,9.528,5.913,14.676,5.979,38.26,0.491,76.52.281,114.78,0.288,27.1,0,54.21-.176,81.31.046,42.86,0.352,64.88,32.95,47.21,69.821-4.98,10.407-9.65,21.075-15.96,30.777-18.76,28.885-46.75,44.989-82.83,45.227-100.43.661-200.864,0.229-301.3,0.178C845.466,485.77,843.49,485.151,839.073,484.412Z"/>
      <path id="_Path_3" data-name="&lt;Path&gt;" class="cls-1" d="M2038.02,484.93c8.03-16.372,15.16-31.094,22.45-45.743,22.39-44.981,44.12-90.267,67.69-134.7,7.47-14.089,8.15-25.671-.55-38.618-3.59-5.35-5.88-11.463-9.57-18.851h108.47c-30.79,61.924-61.07,122.831-91.95,184.934,31.68,3.412,57.87,1.219,82.05-20.254,54.29-48.206,111.08-93.942,166.78-140.757,19.4-16.31,42.11-25,68.09-25.037q186.54-.271,373.09-0.057c2.06,0,4.12.4,8.55,0.856-8.3,16.487-15.44,32.4-24.47,47.308-2.09,3.434-10.68,4.769-16.28,4.783-109.48.27-218.97,0.482-328.45-.057-19.84-.1-35.65,5.055-50.38,17.62-55.72,47.529-112.37,94.1-168.15,141.565-22.42,19.074-47.92,28.383-78.11,28.056-37.2-.4-74.4-0.057-111.61-0.122C2050.56,485.846,2045.45,485.335,2038.02,484.93Z"/>
      <g id="_Group_3" data-name="&lt;Group&gt;">
        <path id="_Path_4" data-name="&lt;Path&gt;" class="cls-2" d="M92.261,544.087L474.991,377.173c0.132,2.454.309,4.234,0.311,6.015,0.022,15.368-.217,30.741.146,46.1,0.117,4.937-1.376,7.43-6.337,9.574q-89.953,38.862-179.686,78.17-45.209,19.713-90.39,39.481c-1.809.791-3.559,1.7-5.514,2.638,74.678,49.82,195.54,61.232,291.827-6.873,98.608-69.747,117.3-184.571,86.482-262.136L67.851,509.927c-70.687-104.184-60.715-275.955,79.4-375.41C289.647,33.445,480.159,70.422,575.1,184.989L191.811,352.149c0-19.344-.156-37.669.238-55.985,0.04-1.848,3.035-4.358,5.272-5.341q63.722-28,127.6-55.67,71.547-31.179,143.067-62.415c1.828-.8,3.62-1.668,5.553-2.562-62.642-44.027-177.451-62.8-275.572-3.817C92.032,230.04,61.113,349.278,95.349,438.992q126.311-55.1,252.5-110.135,125.984-54.942,251.914-109.836c75.077,114.239,53.945,285.845-85.923,379.911C371.917,694.379,186.189,656.962,92.261,544.087Z"/>
      </g>
    </g>
  </g>
</svg>
